# xmcd
#
# Track frame offsets:
#	300
#	16830
#	31856
#	49136
#	65294
#	84574
#	103324
#	119967
#	138934
#	156887
#	175295
#	191870
#	208420
#	229310
#	245297
#	261970
#	283028
#	300381
#	315886
#
# Disc length: 4394 seconds
#
# Revision: 1
# Processed by: cddbd v1.5.2PL0 Copyright (c) Steve Scherf et al.
# Submitted via: audiograbber 1.83.01
#
DISCID=14112613
DTITLE=Jamie Warren - Make Me Believe
DYEAR=2005
DGENRE=Country
TTITLE0=Life Happens
TTITLE1=I Saw Her Standing There
TTITLE2=She Kissed Me
TTITLE3=You're My Everything
TTITLE4=Make Me belive
TTITLE5=Sunny Day in the Park
TTITLE6=One Step Back
TTITLE7=Words You Can't Take Back
TTITLE8=The Way Love Goes
TTITLE9=Ready To Run
TTITLE10=Fallen Angel
TTITLE11=Cried All the Way Home
TTITLE12=The Secret
TTITLE13=What Goes Around Comes Around
TTITLE14=Without You
TTITLE15=She'll Find Someone to Love Her
TTITLE16=Watching Her Sleep
TTITLE17=What a Woman Wants to Hear and a Man Can't Say
TTITLE18=Where's the Love
EXTD=A Collection of Greatest Hits
EXTT0=
EXTT1=
EXTT2=
EXTT3=
EXTT4=
EXTT5=
EXTT6=
EXTT7=
EXTT8=
EXTT9=
EXTT10=
EXTT11=
EXTT12=
EXTT13=
EXTT14=
EXTT15=
EXTT16=
EXTT17=
EXTT18=
PLAYORDER=
